<svg xmlns="http://www.w3.org/2000/svg" version="1.1" width="128px" height="128px" viewBox="0 0 128 128" style="shape-rendering:geometricPrecision; text-rendering:geometricPrecision; image-rendering:optimizeQuality; fill-rule:evenodd; clip-rule:evenodd" xmlns:xlink="http://www.w3.org/1999/xlink">
<g><path style="opacity:0.995" fill="#fa0201" d="M 26.5,-0.5 C 42.8333,-0.5 59.1667,-0.5 75.5,-0.5C 75.5,11.8333 75.5,24.1667 75.5,36.5C 87.5,36.5 99.5,36.5 111.5,36.5C 111.667,63.1687 111.5,89.8354 111,116.5C 108.954,121.71 105.454,125.377 100.5,127.5C 75.8333,127.5 51.1667,127.5 26.5,127.5C 21.5465,125.377 18.0465,121.71 16,116.5C 15.3333,81.1667 15.3333,45.8333 16,10.5C 18.0465,5.28997 21.5465,1.62331 26.5,-0.5 Z"/></g>
<g><path style="opacity:0.995" fill="#fc4e4e" d="M 75.5,-0.5 C 75.8333,-0.5 76.1667,-0.5 76.5,-0.5C 87.801,12.1356 99.4677,24.4689 111.5,36.5C 99.5,36.5 87.5,36.5 75.5,36.5C 75.5,24.1667 75.5,11.8333 75.5,-0.5 Z"/></g>
<g><path style="opacity:1" fill="#fff5f5" d="M 60.5,58.5 C 64.9869,58.1606 68.4869,59.8273 71,63.5C 71.6667,69.1667 71.6667,74.8333 71,80.5C 68.5671,86.448 64.4004,87.948 58.5,85C 57.5399,83.5806 56.7065,82.0806 56,80.5C 55.3333,74.8333 55.3333,69.1667 56,63.5C 57.3657,61.6383 58.8657,59.9717 60.5,58.5 Z"/></g>
<g><path style="opacity:1" fill="#ffefef" d="M 65.5,91.5 C 64.5655,92.5676 64.2322,93.901 64.5,95.5C 66.5,95.5 68.5,95.5 70.5,95.5C 71.0431,95.56 71.3764,95.8933 71.5,96.5C 66.1667,97.8333 60.8333,97.8333 55.5,96.5C 57.7427,95.5258 60.076,95.1924 62.5,95.5C 62.5,94.1667 62.5,92.8333 62.5,91.5C 54.228,90.2737 50.8947,85.607 52.5,77.5C 54.4444,87.4702 60.1111,90.6369 69.5,87C 71.8211,84.1917 73.4878,81.025 74.5,77.5C 76.0614,85.0352 73.0614,89.7019 65.5,91.5 Z"/></g>
<g><path style="opacity:1" fill="#fc5d5c" d="M 65.5,91.5 C 65.5,92.5 65.5,93.5 65.5,94.5C 67.4147,94.2155 69.0813,94.5489 70.5,95.5C 68.5,95.5 66.5,95.5 64.5,95.5C 64.2322,93.901 64.5655,92.5676 65.5,91.5 Z"/></g>
</svg>
