<svg xmlns="http://www.w3.org/2000/svg" version="1.1" width="128px" height="128px" viewBox="0 0 128 128" style="shape-rendering:geometricPrecision; text-rendering:geometricPrecision; image-rendering:optimizeQuality; fill-rule:evenodd; clip-rule:evenodd" xmlns:xlink="http://www.w3.org/1999/xlink">
<g><path style="opacity:0.996" fill="#60a314" d="M 26.5,-0.5 C 42.8333,-0.5 59.1667,-0.5 75.5,-0.5C 75.5,11.8333 75.5,24.1667 75.5,36.5C 87.5,36.5 99.5,36.5 111.5,36.5C 111.667,63.1687 111.5,89.8354 111,116.5C 108.98,121.685 105.48,125.352 100.5,127.5C 75.8333,127.5 51.1667,127.5 26.5,127.5C 21.5465,125.377 18.0465,121.71 16,116.5C 15.3333,81.1667 15.3333,45.8333 16,10.5C 18.0465,5.28997 21.5465,1.62331 26.5,-0.5 Z"/></g>
<g><path style="opacity:0.998" fill="#90bf5b" d="M 75.5,-0.5 C 75.8333,-0.5 76.1667,-0.5 76.5,-0.5C 87.801,12.1356 99.4677,24.4689 111.5,36.5C 99.5,36.5 87.5,36.5 75.5,36.5C 75.5,24.1667 75.5,11.8333 75.5,-0.5 Z"/></g>
<g><path style="opacity:1" fill="#f6f9f1" d="M 45.5,62.5 C 47.1667,62.5 48.8333,62.5 50.5,62.5C 49.3506,67.4184 48.5172,72.4184 48,77.5C 46,78.5 46,79.5 48,80.5C 48.247,86.0245 49.0803,91.3579 50.5,96.5C 48.0637,96.683 45.897,96.0163 44,94.5C 43.0292,89.4843 41.8626,84.4843 40.5,79.5C 41.9489,74.9476 42.7822,70.2809 43,65.5C 44.045,64.6266 44.8783,63.6266 45.5,62.5 Z"/></g>
<g><path style="opacity:1" fill="#f6f9f1" d="M 76.5,62.5 C 79.6516,61.9586 82.1516,62.9586 84,65.5C 84.1608,70.1343 84.9941,74.6343 86.5,79C 85.1042,84.0666 83.9376,89.2332 83,94.5C 81.103,96.0163 78.9363,96.683 76.5,96.5C 77.5216,91.2201 78.355,85.8868 79,80.5C 81,79.5 81,78.5 79,77.5C 78.4828,72.4184 77.6494,67.4184 76.5,62.5 Z"/></g>
<g><path style="opacity:1" fill="#f7fbf4" d="M 61.5,72.5 C 63.5,72.5 65.5,72.5 67.5,72.5C 67.5,74.5 67.5,76.5 67.5,78.5C 65.5,78.5 63.5,78.5 61.5,78.5C 61.5,76.5 61.5,74.5 61.5,72.5 Z"/></g>
<g><path style="opacity:1" fill="#f1f6e9" d="M 61.5,84.5 C 63.8568,84.3367 66.1902,84.5034 68.5,85C 66.7059,88.0877 65.0392,91.2544 63.5,94.5C 61.8333,95.8333 60.1667,95.8333 58.5,94.5C 59.5059,91.1375 60.5059,87.8041 61.5,84.5 Z"/></g>
</svg>
