<svg xmlns="http://www.w3.org/2000/svg" version="1.1" width="128px" height="128px" viewBox="0 0 128 128" style="shape-rendering:geometricPrecision; text-rendering:geometricPrecision; image-rendering:optimizeQuality; fill-rule:evenodd; clip-rule:evenodd" xmlns:xlink="http://www.w3.org/1999/xlink">
<g><path style="opacity:0.996" fill="#0cc963" d="M 26.5,-0.5 C 42.8333,-0.5 59.1667,-0.5 75.5,-0.5C 75.5,11.8333 75.5,24.1667 75.5,36.5C 87.5,36.5 99.5,36.5 111.5,36.5C 111.667,63.1687 111.5,89.8354 111,116.5C 108.98,121.685 105.48,125.352 100.5,127.5C 75.8333,127.5 51.1667,127.5 26.5,127.5C 21.5465,125.377 18.0465,121.71 16,116.5C 15.3333,81.1667 15.3333,45.8333 16,10.5C 18.0465,5.28997 21.5465,1.62331 26.5,-0.5 Z"/></g>
<g><path style="opacity:0.996" fill="#55d992" d="M 75.5,-0.5 C 75.8333,-0.5 76.1667,-0.5 76.5,-0.5C 87.801,12.1356 99.4677,24.4689 111.5,36.5C 99.5,36.5 87.5,36.5 75.5,36.5C 75.5,24.1667 75.5,11.8333 75.5,-0.5 Z"/></g>
<g><path style="opacity:1" fill="#f7fdf9" d="M 45.5,63.5 C 57.5046,63.3335 69.5046,63.5001 81.5,64C 82.3333,64.8333 83.1667,65.6667 84,66.5C 84.6667,74.5 84.6667,82.5 84,90.5C 83.5,91 83,91.5 82.5,92C 69.8333,92.6667 57.1667,92.6667 44.5,92C 44,91.5 43.5,91 43,90.5C 42.3333,82.5 42.3333,74.5 43,66.5C 43.6979,65.3094 44.5313,64.3094 45.5,63.5 Z"/></g>
<g><path style="opacity:1" fill="#1bca68" d="M 53.5,69.5 C 60.4715,69.2794 62.1382,72.1128 58.5,78C 51.4159,78.475 49.7492,75.6417 53.5,69.5 Z"/></g>
<g><path style="opacity:1" fill="#26cc6c" d="M 70.5,74.5 C 74.1309,77.6293 77.6309,80.9626 81,84.5C 81.7429,86.4406 81.5762,88.2739 80.5,90C 68.9238,90.8204 57.4238,90.6537 46,89.5C 46.747,86.5553 48.5804,84.2219 51.5,82.5C 52.9814,83.4803 54.3147,84.647 55.5,86C 56.8333,86.6667 58.1667,86.6667 59.5,86C 63.3705,82.2977 67.0371,78.4643 70.5,74.5 Z"/></g>
</svg>
