<svg xmlns="http://www.w3.org/2000/svg" version="1.1" width="128px" height="128px" viewBox="0 0 128 128" style="shape-rendering:geometricPrecision; text-rendering:geometricPrecision; image-rendering:optimizeQuality; fill-rule:evenodd; clip-rule:evenodd" xmlns:xlink="http://www.w3.org/1999/xlink">
<g><path style="opacity:0.996" fill="#7542ed" d="M 26.5,-0.5 C 42.5,-0.5 58.5,-0.5 74.5,-0.5C 74.5,12.1667 74.5,24.8333 74.5,37.5C 86.8333,37.5 99.1667,37.5 111.5,37.5C 111.667,63.8354 111.5,90.1688 111,116.5C 108.98,121.685 105.48,125.352 100.5,127.5C 75.8333,127.5 51.1667,127.5 26.5,127.5C 21.5465,125.377 18.0465,121.71 16,116.5C 15.3333,81.1667 15.3333,45.8333 16,10.5C 18.0465,5.28997 21.5465,1.62331 26.5,-0.5 Z"/></g>
<g><path style="opacity:0.995" fill="#9f7bf2" d="M 76.5,0.5 C 88.1392,12.4733 99.8059,24.4733 111.5,36.5C 99.5,36.5 87.5,36.5 75.5,36.5C 75.1716,24.3217 75.5049,12.3217 76.5,0.5 Z"/></g>
<g><path style="opacity:0.989" fill="#895eef" d="M 74.5,-0.5 C 75.1667,-0.5 75.8333,-0.5 76.5,-0.5C 76.5,-0.166667 76.5,0.166667 76.5,0.5C 75.5049,12.3217 75.1716,24.3217 75.5,36.5C 87.5,36.5 99.5,36.5 111.5,36.5C 111.5,36.8333 111.5,37.1667 111.5,37.5C 99.1667,37.5 86.8333,37.5 74.5,37.5C 74.5,24.8333 74.5,12.1667 74.5,-0.5 Z"/></g>
<g><path style="opacity:1" fill="#f6f2fe" d="M 59.5,62.5 C 71.1364,61.8175 74.9697,66.8175 71,77.5C 67.654,79.5148 65.9874,82.5148 66,86.5C 64.3333,89.1667 62.6667,89.1667 61,86.5C 60.3333,83.5 60.3333,80.5 61,77.5C 63,76.1667 65,74.8333 67,73.5C 67.8333,69 66,67.1667 61.5,68C 60.2744,70.5273 58.6077,72.694 56.5,74.5C 54.9541,73.7884 53.9541,72.6217 53.5,71C 54.4242,67.2872 56.4242,64.4538 59.5,62.5 Z"/></g>
<g><path style="opacity:1" fill="#fcfbfe" d="M 43.5,65.5 C 46.6802,65.1762 47.8469,66.5096 47,69.5C 43.9838,72.3489 41.1504,75.3489 38.5,78.5C 41.1504,81.6511 43.9838,84.6511 47,87.5C 47.8542,89.6073 47.1875,90.9407 45,91.5C 40.0302,87.6977 35.5302,83.3643 31.5,78.5C 35.5219,74.1465 39.5219,69.8131 43.5,65.5 Z"/></g>
<g><path style="opacity:1" fill="#fcfbfe" d="M 80.5,65.5 C 86.34,68.66 91.34,72.9933 95.5,78.5C 91.4698,83.3643 86.9698,87.6977 82,91.5C 79.8125,90.9407 79.1458,89.6073 80,87.5C 83.0162,84.6511 85.8496,81.6511 88.5,78.5C 85.8496,75.3489 83.0162,72.3489 80,69.5C 79.4209,68.0715 79.5876,66.7382 80.5,65.5 Z"/></g>
<g><path style="opacity:1" fill="#ede5fc" d="M 61.5,89.5 C 64.7286,89.1647 66.2286,90.4981 66,93.5C 61.4155,95.4126 59.9155,94.0793 61.5,89.5 Z"/></g>
</svg>
