<svg xmlns="http://www.w3.org/2000/svg" version="1.1" width="128px" height="128px" viewBox="0 0 128 128" style="shape-rendering:geometricPrecision; text-rendering:geometricPrecision; image-rendering:optimizeQuality; fill-rule:evenodd; clip-rule:evenodd" xmlns:xlink="http://www.w3.org/1999/xlink">
<g><path style="opacity:0.996" fill="#e5252a" d="M 26.5,-0.5 C 42.5,-0.5 58.5,-0.5 74.5,-0.5C 74.5,12.1667 74.5,24.8333 74.5,37.5C 86.8333,37.5 99.1667,37.5 111.5,37.5C 111.667,63.8354 111.5,90.1688 111,116.5C 108.954,121.71 105.454,125.377 100.5,127.5C 75.8333,127.5 51.1667,127.5 26.5,127.5C 21.5465,125.377 18.0465,121.71 16,116.5C 15.3333,81.1667 15.3333,45.8333 16,10.5C 18.0465,5.28997 21.5465,1.62331 26.5,-0.5 Z"/></g>
<g><path style="opacity:0.995" fill="#ed676a" d="M 75.5,-0.5 C 75.8333,-0.5 76.1667,-0.5 76.5,-0.5C 87.801,12.1356 99.4677,24.4689 111.5,36.5C 99.5,36.5 87.5,36.5 75.5,36.5C 75.5,24.1667 75.5,11.8333 75.5,-0.5 Z"/></g>
<g><path style="opacity:0.989" fill="#e84549" d="M 74.5,-0.5 C 74.8333,-0.5 75.1667,-0.5 75.5,-0.5C 75.5,11.8333 75.5,24.1667 75.5,36.5C 87.5,36.5 99.5,36.5 111.5,36.5C 111.5,36.8333 111.5,37.1667 111.5,37.5C 99.1667,37.5 86.8333,37.5 74.5,37.5C 74.5,24.8333 74.5,12.1667 74.5,-0.5 Z"/></g>
<g><path style="opacity:1" fill="#fef8f8" d="M 34.5,71.5 C 39.5988,71.1746 44.5988,71.6746 49.5,73C 54.5155,82.4348 51.5155,86.9348 40.5,86.5C 39.5269,88.9479 39.1936,91.6146 39.5,94.5C 37.8333,94.5 36.1667,94.5 34.5,94.5C 34.5,86.8333 34.5,79.1667 34.5,71.5 Z"/></g>
<g><path style="opacity:1" fill="#fef2f2" d="M 54.5,71.5 C 59.5805,71.2497 64.5805,71.7497 69.5,73C 77.1021,79.2397 77.4354,85.9064 70.5,93C 65.4053,95.1771 60.072,96.0104 54.5,95.5C 54.5,87.5 54.5,79.5 54.5,71.5 Z"/></g>
<g><path style="opacity:1" fill="#fefbfb" d="M 84.5,85.5 C 83.5233,88.2869 83.19,91.2869 83.5,94.5C 81.8333,94.5 80.1667,94.5 78.5,94.5C 78.5,86.8333 78.5,79.1667 78.5,71.5C 83.8333,71.5 89.1667,71.5 94.5,71.5C 94.5,73.1667 94.5,74.8333 94.5,76.5C 91.1667,76.5 87.8333,76.5 84.5,76.5C 84.5,77.8333 84.5,79.1667 84.5,80.5C 87.1667,80.5 89.8333,80.5 92.5,80.5C 92.5,82.1667 92.5,83.8333 92.5,85.5C 89.8333,85.5 87.1667,85.5 84.5,85.5 Z"/></g>
<g><path style="opacity:1" fill="#e8403e" d="M 40.5,76.5 C 42.1992,76.3398 43.8659,76.5065 45.5,77C 46.8333,78.3333 46.8333,79.6667 45.5,81C 43.8659,81.4935 42.1992,81.6602 40.5,81.5C 40.5,79.8333 40.5,78.1667 40.5,76.5 Z"/></g>
<g><path style="opacity:1" fill="#e63032" d="M 60.5,76.5 C 69.6269,77.428 71.6269,81.5947 66.5,89C 64.5273,89.4955 62.5273,89.6621 60.5,89.5C 60.5,85.1667 60.5,80.8333 60.5,76.5 Z"/></g>
<g><path style="opacity:1" fill="#f6adaf" d="M 84.5,85.5 C 84.5,88.8333 84.5,92.1667 84.5,95.5C 82.2646,95.7947 80.2646,95.4614 78.5,94.5C 80.1667,94.5 81.8333,94.5 83.5,94.5C 83.19,91.2869 83.5233,88.2869 84.5,85.5 Z"/></g>
<g><path style="opacity:1" fill="#f39193" d="M 34.5,71.5 C 34.5,79.1667 34.5,86.8333 34.5,94.5C 36.1667,94.5 37.8333,94.5 39.5,94.5C 39.1936,91.6146 39.5269,88.9479 40.5,86.5C 40.5,89.5 40.5,92.5 40.5,95.5C 38.1667,95.5 35.8333,95.5 33.5,95.5C 33.1743,87.3159 33.5076,79.3159 34.5,71.5 Z"/></g>
</svg>
