<svg xmlns="http://www.w3.org/2000/svg" version="1.1" width="128px" height="128px" viewBox="0 0 128 128" style="shape-rendering:geometricPrecision; text-rendering:geometricPrecision; image-rendering:optimizeQuality; fill-rule:evenodd; clip-rule:evenodd" xmlns:xlink="http://www.w3.org/1999/xlink">
<g><path style="opacity:0.996" fill="#0363d1" d="M 26.5,-0.5 C 42.5,-0.5 58.5,-0.5 74.5,-0.5C 74.5,12.1667 74.5,24.8333 74.5,37.5C 86.8333,37.5 99.1667,37.5 111.5,37.5C 111.667,63.8354 111.5,90.1688 111,116.5C 108.954,121.71 105.454,125.377 100.5,127.5C 75.8333,127.5 51.1667,127.5 26.5,127.5C 21.5465,125.377 18.0465,121.71 16,116.5C 15.3333,81.1667 15.3333,45.8333 16,10.5C 18.0465,5.28997 21.5465,1.62331 26.5,-0.5 Z"/></g>
<g><path style="opacity:0.994" fill="#4f92df" d="M 75.5,-0.5 C 75.8333,-0.5 76.1667,-0.5 76.5,-0.5C 87.801,12.1356 99.4677,24.4689 111.5,36.5C 99.5,36.5 87.5,36.5 75.5,36.5C 75.5,24.1667 75.5,11.8333 75.5,-0.5 Z"/></g>
<g><path style="opacity:1" fill="#287ad7" d="M 74.5,-0.5 C 74.8333,-0.5 75.1667,-0.5 75.5,-0.5C 75.5,11.8333 75.5,24.1667 75.5,36.5C 87.5,36.5 99.5,36.5 111.5,36.5C 111.5,36.8333 111.5,37.1667 111.5,37.5C 99.1667,37.5 86.8333,37.5 74.5,37.5C 74.5,24.8333 74.5,12.1667 74.5,-0.5 Z"/></g>
<g><path style="opacity:1" fill="#eef3fb" d="M 44.5,60.5 C 56.8378,60.3335 69.1712,60.5001 81.5,61C 84.0026,62.5494 84.0026,64.2161 81.5,66C 69.5,66.6667 57.5,66.6667 45.5,66C 43.3652,64.4443 43.0319,62.6109 44.5,60.5 Z"/></g>
<g><path style="opacity:1" fill="#eff4fc" d="M 45.5,71.5 C 57.5046,71.3335 69.5046,71.5001 81.5,72C 84.1667,73.6667 84.1667,75.3333 81.5,77C 69.5,77.6667 57.5,77.6667 45.5,77C 42.9824,75.1899 42.9824,73.3566 45.5,71.5 Z"/></g>
<g><path style="opacity:1" fill="#ebf1fb" d="M 45.5,82.5 C 57.5046,82.3335 69.5046,82.5001 81.5,83C 83.5268,84.3957 83.8602,86.0624 82.5,88C 69.8333,88.6667 57.1667,88.6667 44.5,88C 43.2427,85.9235 43.576,84.0902 45.5,82.5 Z"/></g>
<g><path style="opacity:1" fill="#fafcfe" d="M 44.5,94.5 C 53.1731,94.3336 61.8397,94.5002 70.5,95C 71.3802,96.3561 71.7135,97.8561 71.5,99.5C 62.4938,99.6664 53.4938,99.4998 44.5,99C 43.2721,97.5098 43.2721,96.0098 44.5,94.5 Z"/></g>
</svg>
