<svg xmlns="http://www.w3.org/2000/svg" version="1.1" width="128px" height="128px" viewBox="0 0 128 128" style="shape-rendering:geometricPrecision; text-rendering:geometricPrecision; image-rendering:optimizeQuality; fill-rule:evenodd; clip-rule:evenodd" xmlns:xlink="http://www.w3.org/1999/xlink">
<g><path style="opacity:0.995" fill="#fa0100" d="M 26.5,-0.5 C 42.8333,-0.5 59.1667,-0.5 75.5,-0.5C 75.5,11.8333 75.5,24.1667 75.5,36.5C 87.5,36.5 99.5,36.5 111.5,36.5C 111.667,63.1687 111.5,89.8354 111,116.5C 108.954,121.71 105.454,125.377 100.5,127.5C 75.8333,127.5 51.1667,127.5 26.5,127.5C 21.5465,125.377 18.0465,121.71 16,116.5C 15.3333,81.1667 15.3333,45.8333 16,10.5C 18.0465,5.28997 21.5465,1.62331 26.5,-0.5 Z"/></g>
<g><path style="opacity:0.993" fill="#fc4e4e" d="M 75.5,-0.5 C 75.8333,-0.5 76.1667,-0.5 76.5,-0.5C 87.801,12.1356 99.4677,24.4689 111.5,36.5C 99.5,36.5 87.5,36.5 75.5,36.5C 75.5,24.1667 75.5,11.8333 75.5,-0.5 Z"/></g>
<g><path style="opacity:1" fill="#fff9f9" d="M 58.5,57.5 C 75.7759,56.9429 84.2759,65.2763 84,82.5C 78.1235,97.6835 67.6235,102.183 52.5,96C 41.8435,87.3787 40.0102,77.212 47,65.5C 50.4821,62.1608 54.3155,59.4942 58.5,57.5 Z"/></g>
<g><path style="opacity:1" fill="#fa0f0a" d="M 57.5,71.5 C 63.1486,72.4916 68.1486,74.8249 72.5,78.5C 67.859,81.6545 62.859,83.9878 57.5,85.5C 57.5,80.8333 57.5,76.1667 57.5,71.5 Z"/></g>
</svg>
