<svg xmlns="http://www.w3.org/2000/svg" version="1.1" width="128px" height="128px" viewBox="0 0 128 128" style="shape-rendering:geometricPrecision; text-rendering:geometricPrecision; image-rendering:optimizeQuality; fill-rule:evenodd; clip-rule:evenodd" xmlns:xlink="http://www.w3.org/1999/xlink">
<g><path style="opacity:0.995" fill="#ffb11f" d="M 26.5,-0.5 C 42.5,-0.5 58.5,-0.5 74.5,-0.5C 74.5,12.1667 74.5,24.8333 74.5,37.5C 86.8333,37.5 99.1667,37.5 111.5,37.5C 111.667,63.8354 111.5,90.1688 111,116.5C 108.98,121.685 105.48,125.352 100.5,127.5C 75.8333,127.5 51.1667,127.5 26.5,127.5C 21.5465,125.377 18.0465,121.71 16,116.5C 15.3333,81.1667 15.3333,45.8333 16,10.5C 18.0465,5.28997 21.5465,1.62331 26.5,-0.5 Z"/></g>
<g><path style="opacity:0.995" fill="#ffc964" d="M 75.5,-0.5 C 75.8333,-0.5 76.1667,-0.5 76.5,-0.5C 87.801,12.1356 99.4677,24.4689 111.5,36.5C 99.5,36.5 87.5,36.5 75.5,36.5C 75.5,24.1667 75.5,11.8333 75.5,-0.5 Z"/></g>
<g><path style="opacity:1" fill="#fffcf6" d="M 36.5,8.5 C 40.8333,8.5 45.1667,8.5 49.5,8.5C 49.5,10.8333 49.5,13.1667 49.5,15.5C 52.1667,15.5 54.8333,15.5 57.5,15.5C 58.5938,21.9049 55.9271,24.2382 49.5,22.5C 49.5,24.8333 49.5,27.1667 49.5,29.5C 51.8568,29.3367 54.1902,29.5034 56.5,30C 57.8333,32 57.8333,34 56.5,36C 54.1902,36.4966 51.8568,36.6633 49.5,36.5C 49.5,38.8333 49.5,41.1667 49.5,43.5C 55.9271,41.7618 58.5938,44.0951 57.5,50.5C 53.1667,50.5 48.8333,50.5 44.5,50.5C 44.5,48.1667 44.5,45.8333 44.5,43.5C 41.8333,43.5 39.1667,43.5 36.5,43.5C 36.5,41.1667 36.5,38.8333 36.5,36.5C 39.1667,36.5 41.8333,36.5 44.5,36.5C 44.5,34.1667 44.5,31.8333 44.5,29.5C 38.0729,31.2382 35.4062,28.9049 36.5,22.5C 39.1667,22.5 41.8333,22.5 44.5,22.5C 44.5,20.1667 44.5,17.8333 44.5,15.5C 38.0729,17.2382 35.4062,14.9049 36.5,8.5 Z"/></g>
<g><path style="opacity:1" fill="#ffbd41" d="M 74.5,-0.5 C 74.8333,-0.5 75.1667,-0.5 75.5,-0.5C 75.5,11.8333 75.5,24.1667 75.5,36.5C 87.5,36.5 99.5,36.5 111.5,36.5C 111.5,36.8333 111.5,37.1667 111.5,37.5C 99.1667,37.5 86.8333,37.5 74.5,37.5C 74.5,24.8333 74.5,12.1667 74.5,-0.5 Z"/></g>
<g><path style="opacity:1" fill="#fffaf2" d="M 43.5,55.5 C 45.8333,55.5 48.1667,55.5 50.5,55.5C 51.0554,63.5749 51.8888,71.5749 53,79.5C 50.0393,82.6163 46.5393,83.2829 42.5,81.5C 40.8339,80.0079 39.8339,78.1745 39.5,76C 41.6965,69.2952 43.0298,62.4618 43.5,55.5 Z"/></g>
<g><path style="opacity:1" fill="#ffb42c" d="M 43.5,72.5 C 50.1904,71.3306 51.8571,73.4973 48.5,79C 47.1667,79.6667 45.8333,79.6667 44.5,79C 43.5769,76.9592 43.2436,74.7925 43.5,72.5 Z"/></g>
</svg>
